<mxfile host="app.diagrams.net" modified="2024-01-08T16:01:29.538Z" agent="Mozilla/5.0 (Windows NT 10.0; Win64; x64) AppleWebKit/537.36 (KHTML, like Gecko) Chrome/120.0.0.0 Safari/537.36" etag="V2v0DTg1prS2d99emwHE" version="22.1.17" type="github">
  <diagram name="第 1 页" id="CW00y3aE3JMuMUfLDlIA">
    <mxGraphModel dx="1052" dy="625" grid="1" gridSize="10" guides="1" tooltips="1" connect="1" arrows="1" fold="1" page="1" pageScale="1" pageWidth="827" pageHeight="1169" math="1" shadow="0">
      <root>
        <mxCell id="0" />
        <mxCell id="1" parent="0" />
        <mxCell id="ndi88zlwP6lYpJqEUTCB-1" value="" style="edgeStyle=orthogonalEdgeStyle;rounded=0;orthogonalLoop=1;jettySize=auto;html=1;shadow=1;fillColor=#dae8fc;strokeColor=#000000;" edge="1" parent="1" source="ndi88zlwP6lYpJqEUTCB-2" target="ndi88zlwP6lYpJqEUTCB-4">
          <mxGeometry relative="1" as="geometry" />
        </mxCell>
        <mxCell id="ndi88zlwP6lYpJqEUTCB-2" value="&lt;font style=&quot;font-size: 15px;&quot; face=&quot;Times New Roman&quot;&gt;函数式源程序&lt;/font&gt;" style="rounded=0;whiteSpace=wrap;html=1;shadow=1;fillColor=#dae8fc;strokeColor=#000000;" vertex="1" parent="1">
          <mxGeometry x="130" y="280" width="110" height="40" as="geometry" />
        </mxCell>
        <mxCell id="ndi88zlwP6lYpJqEUTCB-3" value="" style="edgeStyle=orthogonalEdgeStyle;rounded=0;orthogonalLoop=1;jettySize=auto;html=1;dashed=1;shadow=1;" edge="1" parent="1" source="ndi88zlwP6lYpJqEUTCB-4" target="ndi88zlwP6lYpJqEUTCB-6">
          <mxGeometry relative="1" as="geometry" />
        </mxCell>
        <mxCell id="ndi88zlwP6lYpJqEUTCB-4" value="&lt;span style=&quot;color: rgb(0, 0, 0); font-family: &amp;quot;Times New Roman&amp;quot;; font-size: 16px; font-style: normal; font-variant-ligatures: normal; font-variant-caps: normal; font-weight: 400; letter-spacing: normal; orphans: 2; text-align: center; text-indent: 0px; text-transform: none; widows: 2; word-spacing: 0px; -webkit-text-stroke-width: 0px; text-decoration-thickness: initial; text-decoration-style: initial; text-decoration-color: initial; float: none; display: inline !important;&quot;&gt;CPS&lt;/span&gt;" style="rounded=0;whiteSpace=wrap;html=1;shadow=1;fillColor=#dae8fc;strokeColor=#000000;labelBackgroundColor=none;" vertex="1" parent="1">
          <mxGeometry x="290" y="280" width="100" height="40" as="geometry" />
        </mxCell>
        <mxCell id="ndi88zlwP6lYpJqEUTCB-5" value="" style="edgeStyle=orthogonalEdgeStyle;rounded=0;orthogonalLoop=1;jettySize=auto;html=1;shadow=1;fillColor=#ffe6cc;strokeColor=#000000;" edge="1" parent="1" source="ndi88zlwP6lYpJqEUTCB-6" target="ndi88zlwP6lYpJqEUTCB-7">
          <mxGeometry relative="1" as="geometry" />
        </mxCell>
        <mxCell id="ndi88zlwP6lYpJqEUTCB-6" value="&lt;span style=&quot;color: rgb(0, 0, 0); font-family: &amp;quot;Times New Roman&amp;quot;; font-size: 16px; font-style: normal; font-variant-ligatures: normal; font-variant-caps: normal; font-weight: 400; letter-spacing: normal; orphans: 2; text-align: center; text-indent: 0px; text-transform: none; widows: 2; word-spacing: 0px; -webkit-text-stroke-width: 0px; text-decoration-thickness: initial; text-decoration-style: initial; text-decoration-color: initial; float: none; display: inline !important;&quot;&gt;SSA&lt;/span&gt;" style="rounded=0;whiteSpace=wrap;html=1;shadow=1;fillColor=#ffe6cc;strokeColor=#000000;labelBackgroundColor=none;" vertex="1" parent="1">
          <mxGeometry x="450" y="280" width="100" height="40" as="geometry" />
        </mxCell>
        <mxCell id="ndi88zlwP6lYpJqEUTCB-7" value="&lt;span style=&quot;color: rgb(0, 0, 0); font-family: &amp;quot;Times New Roman&amp;quot;; font-style: normal; font-variant-ligatures: normal; font-variant-caps: normal; font-weight: 400; letter-spacing: normal; orphans: 2; text-align: center; text-indent: 0px; text-transform: none; widows: 2; word-spacing: 0px; -webkit-text-stroke-width: 0px; text-decoration-thickness: initial; text-decoration-style: initial; text-decoration-color: initial; float: none; display: inline !important;&quot;&gt;&lt;font style=&quot;font-size: 15px;&quot;&gt;目标程序&lt;/font&gt;&lt;/span&gt;" style="rounded=0;whiteSpace=wrap;html=1;shadow=1;fillColor=#ffe6cc;strokeColor=#000000;labelBackgroundColor=none;" vertex="1" parent="1">
          <mxGeometry x="600" y="280" width="100" height="40" as="geometry" />
        </mxCell>
        <mxCell id="ndi88zlwP6lYpJqEUTCB-8" value="&lt;font color=&quot;#1e548a&quot; style=&quot;font-size: 16px;&quot; face=&quot;Times New Roman&quot;&gt;CertiCoq, MiniML Compiler&lt;/font&gt;" style="text;html=1;strokeColor=none;fillColor=none;align=center;verticalAlign=middle;whiteSpace=wrap;rounded=0;" vertex="1" parent="1">
          <mxGeometry x="145" y="320" width="240" height="40" as="geometry" />
        </mxCell>
        <mxCell id="ndi88zlwP6lYpJqEUTCB-9" value="&lt;font color=&quot;#ab5216&quot; style=&quot;font-size: 16px;&quot; face=&quot;Times New Roman&quot;&gt;Vellvm, CompCertSSA&lt;/font&gt;" style="text;html=1;strokeColor=none;fillColor=none;align=center;verticalAlign=middle;whiteSpace=wrap;rounded=0;" vertex="1" parent="1">
          <mxGeometry x="460" y="320" width="230" height="40" as="geometry" />
        </mxCell>
        <mxCell id="ndi88zlwP6lYpJqEUTCB-10" value="" style="endArrow=none;html=1;rounded=0;fillColor=#e51400;strokeColor=#CC0000;strokeWidth=3;" edge="1" parent="1">
          <mxGeometry width="50" height="50" relative="1" as="geometry">
            <mxPoint x="430" y="270" as="sourcePoint" />
            <mxPoint x="410" y="330" as="targetPoint" />
          </mxGeometry>
        </mxCell>
        <mxCell id="ndi88zlwP6lYpJqEUTCB-11" value="" style="html=1;shadow=0;dashed=0;align=center;verticalAlign=middle;shape=mxgraph.arrows2.arrow;dy=0.63;dx=22;direction=south;notch=0;fillColor=#f8cecc;strokeColor=#666666;" vertex="1" parent="1">
          <mxGeometry x="406.25" y="340" width="27.5" height="40" as="geometry" />
        </mxCell>
        <mxCell id="ndi88zlwP6lYpJqEUTCB-12" value="" style="edgeStyle=orthogonalEdgeStyle;rounded=0;orthogonalLoop=1;jettySize=auto;html=1;fillColor=#f8cecc;strokeColor=#000000;" edge="1" parent="1" source="ndi88zlwP6lYpJqEUTCB-13" target="ndi88zlwP6lYpJqEUTCB-15">
          <mxGeometry relative="1" as="geometry" />
        </mxCell>
        <mxCell id="ndi88zlwP6lYpJqEUTCB-13" value="&lt;span style=&quot;color: rgb(0, 0, 0); font-family: &amp;quot;Times New Roman&amp;quot;; font-size: 16px; font-style: normal; font-variant-ligatures: normal; font-variant-caps: normal; font-weight: 400; letter-spacing: normal; orphans: 2; text-align: center; text-indent: 0px; text-transform: none; widows: 2; word-spacing: 0px; -webkit-text-stroke-width: 0px; text-decoration-thickness: initial; text-decoration-style: initial; text-decoration-color: initial; float: none; display: inline !important;&quot;&gt;CPS&lt;/span&gt;&lt;span style=&quot;color: rgb(0, 0, 0); font-family: &amp;quot;Times New Roman&amp;quot;; font-style: normal; font-variant-ligatures: normal; font-variant-caps: normal; font-weight: 400; letter-spacing: normal; orphans: 2; text-align: center; text-indent: 0px; text-transform: none; widows: 2; word-spacing: 0px; -webkit-text-stroke-width: 0px; text-decoration-thickness: initial; text-decoration-style: initial; text-decoration-color: initial; float: none; display: inline !important;&quot;&gt;&lt;font style=&quot;font-size: 15px;&quot;&gt;形式的&lt;/font&gt;&lt;/span&gt;&lt;span style=&quot;color: rgb(0, 0, 0); font-family: &amp;quot;Times New Roman&amp;quot;; font-size: 16px; font-style: normal; font-variant-ligatures: normal; font-variant-caps: normal; font-weight: 400; letter-spacing: normal; orphans: 2; text-align: center; text-indent: 0px; text-transform: none; widows: 2; word-spacing: 0px; -webkit-text-stroke-width: 0px; text-decoration-thickness: initial; text-decoration-style: initial; text-decoration-color: initial; float: none; display: inline !important;&quot;&gt;PCF&lt;/span&gt;" style="rounded=0;whiteSpace=wrap;html=1;shadow=1;fillColor=#f8cecc;strokeColor=#000000;labelBackgroundColor=none;" vertex="1" parent="1">
          <mxGeometry x="270" y="390" width="120" height="40" as="geometry" />
        </mxCell>
        <mxCell id="ndi88zlwP6lYpJqEUTCB-14" value="" style="edgeStyle=orthogonalEdgeStyle;rounded=0;orthogonalLoop=1;jettySize=auto;html=1;strokeColor=none;shadow=0;fontColor=#FFFFFF;" edge="1" parent="1" source="ndi88zlwP6lYpJqEUTCB-15" target="ndi88zlwP6lYpJqEUTCB-26">
          <mxGeometry relative="1" as="geometry" />
        </mxCell>
        <mxCell id="ndi88zlwP6lYpJqEUTCB-15" value="&lt;font face=&quot;Times New Roman&quot;&gt;&lt;font style=&quot;font-size: 15px;&quot;&gt;经简化的&lt;/font&gt;&lt;span style=&quot;font-size: 16px;&quot;&gt; LLVM IR&lt;/span&gt;&lt;/font&gt;" style="rounded=0;whiteSpace=wrap;html=1;shadow=1;fillColor=#f8cecc;strokeColor=#000000;labelBackgroundColor=none;" vertex="1" parent="1">
          <mxGeometry x="450" y="390" width="150" height="40" as="geometry" />
        </mxCell>
        <mxCell id="ndi88zlwP6lYpJqEUTCB-16" value="&lt;font style=&quot;font-size: 16px;&quot; face=&quot;Times New Roman&quot;&gt;$$\mathcal{G}$$&lt;/font&gt;" style="text;html=1;strokeColor=none;fillColor=none;align=center;verticalAlign=middle;whiteSpace=wrap;rounded=0;fontColor=default;" vertex="1" parent="1">
          <mxGeometry x="385" y="380" width="70" height="30" as="geometry" />
        </mxCell>
        <mxCell id="ndi88zlwP6lYpJqEUTCB-17" value="&lt;font color=&quot;#1e548a&quot; style=&quot;font-size: 16px;&quot; face=&quot;Times New Roman&quot;&gt;经验证的函数式编译器&lt;/font&gt;" style="text;html=1;strokeColor=none;fillColor=none;align=center;verticalAlign=middle;whiteSpace=wrap;rounded=0;" vertex="1" parent="1">
          <mxGeometry x="180" y="220" width="170" height="70" as="geometry" />
        </mxCell>
        <mxCell id="ndi88zlwP6lYpJqEUTCB-18" value="&lt;font style=&quot;font-size: 16px;&quot; face=&quot;Times New Roman&quot; color=&quot;#ab5216&quot;&gt;经验证的命令式编译器&lt;/font&gt;" style="text;html=1;strokeColor=none;fillColor=none;align=center;verticalAlign=middle;whiteSpace=wrap;rounded=0;" vertex="1" parent="1">
          <mxGeometry x="500" y="220" width="170" height="70" as="geometry" />
        </mxCell>
        <mxCell id="ndi88zlwP6lYpJqEUTCB-19" value="" style="edgeStyle=orthogonalEdgeStyle;rounded=0;orthogonalLoop=1;jettySize=auto;html=1;shadow=0;strokeWidth=1;fontColor=#FFFFFF;strokeColor=none;" edge="1" parent="1" source="ndi88zlwP6lYpJqEUTCB-20">
          <mxGeometry relative="1" as="geometry">
            <mxPoint x="270" y="410" as="targetPoint" />
          </mxGeometry>
        </mxCell>
        <mxCell id="ndi88zlwP6lYpJqEUTCB-20" value="直接风格PCF 程序" style="rounded=0;whiteSpace=wrap;html=1;labelBackgroundColor=none;fontFamily=Times New Roman;fontSize=16;shadow=0;strokeColor=none;fontColor=#FFFFFF;" vertex="1" parent="1">
          <mxGeometry x="65" y="390" width="150" height="40" as="geometry" />
        </mxCell>
        <mxCell id="ndi88zlwP6lYpJqEUTCB-21" value="" style="edgeStyle=orthogonalEdgeStyle;rounded=0;orthogonalLoop=1;jettySize=auto;html=1;strokeColor=none;fontColor=#FFFFFF;" edge="1" parent="1" source="ndi88zlwP6lYpJqEUTCB-22" target="ndi88zlwP6lYpJqEUTCB-20">
          <mxGeometry relative="1" as="geometry" />
        </mxCell>
        <mxCell id="ndi88zlwP6lYpJqEUTCB-22" value="PCF 程序文本" style="rounded=0;whiteSpace=wrap;html=1;labelBackgroundColor=none;fontFamily=Times New Roman;fontSize=16;shadow=0;strokeColor=none;fontColor=#FFFFFF;" vertex="1" parent="1">
          <mxGeometry x="70" y="460" width="140" height="40" as="geometry" />
        </mxCell>
        <mxCell id="ndi88zlwP6lYpJqEUTCB-23" value="PCF 语法分析器" style="text;html=1;align=center;verticalAlign=middle;whiteSpace=wrap;rounded=0;fontSize=16;fontFamily=Times New Roman;strokeColor=none;fontColor=#FFFFFF;" vertex="1" parent="1">
          <mxGeometry x="145" y="430" width="120" height="30" as="geometry" />
        </mxCell>
        <mxCell id="ndi88zlwP6lYpJqEUTCB-24" value="&lt;font&gt;CPS &lt;br&gt;转换&lt;/font&gt;" style="text;html=1;align=center;verticalAlign=middle;whiteSpace=wrap;rounded=0;fontSize=16;fontFamily=Times New Roman;strokeColor=none;fontColor=#FFFFFF;" vertex="1" parent="1">
          <mxGeometry x="200" y="370" width="90" height="30" as="geometry" />
        </mxCell>
        <mxCell id="ndi88zlwP6lYpJqEUTCB-25" value="" style="edgeStyle=orthogonalEdgeStyle;rounded=0;orthogonalLoop=1;jettySize=auto;html=1;strokeColor=none;shadow=0;fontColor=#FFFFFF;" edge="1" parent="1" source="ndi88zlwP6lYpJqEUTCB-26" target="ndi88zlwP6lYpJqEUTCB-27">
          <mxGeometry relative="1" as="geometry" />
        </mxCell>
        <mxCell id="ndi88zlwP6lYpJqEUTCB-26" value="Vellvm 抽象语法树" style="rounded=0;whiteSpace=wrap;html=1;labelBackgroundColor=none;fontFamily=Times New Roman;fontSize=16;shadow=0;strokeColor=none;fontColor=#FFFFFF;" vertex="1" parent="1">
          <mxGeometry x="641.0899999999999" y="390" width="158.12" height="40" as="geometry" />
        </mxCell>
        <mxCell id="ndi88zlwP6lYpJqEUTCB-27" value="LLVM IR 程序文本" style="rounded=0;whiteSpace=wrap;html=1;labelBackgroundColor=none;fontFamily=Times New Roman;fontSize=16;shadow=0;strokeColor=none;fontColor=#FFFFFF;" vertex="1" parent="1">
          <mxGeometry x="640" y="460" width="160.32" height="40" as="geometry" />
        </mxCell>
        <mxCell id="ndi88zlwP6lYpJqEUTCB-28" value="" style="endArrow=none;html=1;rounded=0;fillColor=#e51400;strokeColor=#CC0000;strokeWidth=3;" edge="1" parent="1">
          <mxGeometry width="50" height="50" relative="1" as="geometry">
            <mxPoint x="430" y="330" as="sourcePoint" />
            <mxPoint x="410" y="270" as="targetPoint" />
          </mxGeometry>
        </mxCell>
      </root>
    </mxGraphModel>
  </diagram>
</mxfile>
